<svg width="15" height="15" viewBox="0 0 15 15" fill="none" xmlns="http://www.w3.org/2000/svg">
<path d="M9.4375 4.22217V12.9211C9.4375 13.0137 9.46036 13.1049 9.50406 13.1865C9.54775 13.2682 9.61093 13.3378 9.68798 13.3892L10.4609 13.9044C10.5359 13.9544 10.6218 13.9857 10.7114 13.9955C10.801 14.0054 10.8916 13.9935 10.9757 13.961C11.0598 13.9285 11.1348 13.8763 11.1945 13.8087C11.2542 13.7412 11.2967 13.6603 11.3186 13.5728L12.25 9.84717" stroke="#162B55" stroke-linecap="round" stroke-linejoin="round"/>
<path d="M11.4 9.84719C12.0896 9.84719 12.7509 9.55087 13.2385 9.02342C13.7261 8.49598 14 7.78061 14 7.03469C14 6.28876 13.7261 5.57339 13.2385 5.04595C12.7509 4.5185 12.0896 4.22219 11.4 4.22219H8.8C8.8 4.22219 5.26064 4.22219 1.85468 1.13212C1.77893 1.06315 1.68655 1.01902 1.58841 1.0049C1.49026 0.990791 1.39043 1.00729 1.30066 1.05245C1.21088 1.09762 1.1349 1.16957 1.08164 1.25985C1.02837 1.35014 1.00005 1.455 1 1.5621V12.5073C1.00005 12.6144 1.02837 12.7192 1.08164 12.8095C1.1349 12.8998 1.21088 12.9718 1.30066 13.0169C1.39043 13.0621 1.49026 13.0786 1.58841 13.0645C1.68655 13.0504 1.77893 13.0062 1.85468 12.9373C5.26064 9.84719 8.8 9.84719 8.8 9.84719H11.4Z" stroke="#162B55" stroke-linecap="round" stroke-linejoin="round"/>
</svg>
