<svg width="15" height="15" viewBox="0 0 15 15" fill="none" xmlns="http://www.w3.org/2000/svg">
<path d="M7.5 0C3.35833 0 0 3.35833 0 7.5C0 11.6417 3.35833 15 7.5 15C8.19167 15 8.75 14.4417 8.75 13.75C8.75 13.425 8.625 13.1333 8.425 12.9083C8.23333 12.6917 8.10833 12.4 8.10833 12.0833C8.10833 11.3917 8.66667 10.8333 9.35833 10.8333H10.8333C13.1333 10.8333 15 8.96667 15 6.66667C15 2.98333 11.6417 0 7.5 0ZM2.91667 7.5C2.225 7.5 1.66667 6.94167 1.66667 6.25C1.66667 5.55833 2.225 5 2.91667 5C3.60833 5 4.16667 5.55833 4.16667 6.25C4.16667 6.94167 3.60833 7.5 2.91667 7.5ZM5.41667 4.16667C4.725 4.16667 4.16667 3.60833 4.16667 2.91667C4.16667 2.225 4.725 1.66667 5.41667 1.66667C6.10833 1.66667 6.66667 2.225 6.66667 2.91667C6.66667 3.60833 6.10833 4.16667 5.41667 4.16667ZM9.58333 4.16667C8.89167 4.16667 8.33333 3.60833 8.33333 2.91667C8.33333 2.225 8.89167 1.66667 9.58333 1.66667C10.275 1.66667 10.8333 2.225 10.8333 2.91667C10.8333 3.60833 10.275 4.16667 9.58333 4.16667ZM12.0833 7.5C11.3917 7.5 10.8333 6.94167 10.8333 6.25C10.8333 5.55833 11.3917 5 12.0833 5C12.775 5 13.3333 5.55833 13.3333 6.25C13.3333 6.94167 12.775 7.5 12.0833 7.5Z" fill="black"/>
</svg>
