<svg width="31" height="31" viewBox="0 0 31 31" fill="none" xmlns="http://www.w3.org/2000/svg">
<path d="M3.87492 7.75C3.16192 7.75 2.58325 8.32867 2.58325 9.04167V25.8333C2.58325 27.2542 3.74575 28.4167 5.16659 28.4167H21.9583C22.6713 28.4167 23.2499 27.838 23.2499 27.125C23.2499 26.412 22.6713 25.8333 21.9583 25.8333H5.16659V9.04167C5.16659 8.32867 4.58792 7.75 3.87492 7.75Z" fill="white"/>
<path d="M25.8333 2.58337H10.3333C8.90604 2.58337 7.75 3.73942 7.75 5.16671V20.6667C7.75 22.094 8.90604 23.25 10.3333 23.25H25.8333C27.2606 23.25 28.4167 22.094 28.4167 20.6667V5.16671C28.4167 3.73942 27.2606 2.58337 25.8333 2.58337ZM16.7917 15.5L13.5625 13.5625L10.3333 15.5V6.45837C10.3333 5.74537 10.912 5.16671 11.625 5.16671H15.5C16.213 5.16671 16.7917 5.74537 16.7917 6.45837V15.5Z" fill="white"/>
</svg>
