<svg width="16" height="16" viewBox="0 0 16 16" fill="none" xmlns="http://www.w3.org/2000/svg">
<path d="M5.5 8.5H9.5M4 12.5C2.625 12.5 1.5 11.375 1.5 10V9.5C1.5 8.95 1.95 8.5 2.5 8.5H5.5C6.05 8.5 6.5 8.95 6.5 9.5V10C6.5 11.375 5.375 12.5 4 12.5ZM11 12.5C9.625 12.5 8.5 11.375 8.5 10V9.5C8.5 8.95 8.95 8.5 9.5 8.5H12.5C13.05 8.5 13.5 8.95 13.5 9.5V10C13.5 11.375 12.375 12.5 11 12.5Z" stroke="#162B55"/>
<path d="M13.5 9.625V3.5C13.5 2.95 13.05 2.5 12.5 2.5C11.95 2.5 11.5 2.95 11.5 3.5V4M1.5 9.625V3.5C1.5 2.95 1.95 2.5 2.5 2.5C3.05 2.5 3.5 2.95 3.5 3.5V4L1.5 9.625Z" stroke="#162B55"/>
</svg>
