<svg width="22" height="22" viewBox="0 0 22 22" fill="none" xmlns="http://www.w3.org/2000/svg">
<path d="M7.4 7.9H7.9V7.4V6.275V3.125C7.9 2.77982 8.17982 2.5 8.525 2.5H13.475C13.8202 2.5 14.1 2.77982 14.1 3.125V7.4V7.9H14.6H15.725H18.875C19.2202 7.9 19.5 8.17982 19.5 8.525V13.475C19.5 13.8202 19.2202 14.1 18.875 14.1H15.725H14.6H14.1V14.6V18.875C14.1 19.2202 13.8202 19.5 13.475 19.5H8.525C8.17982 19.5 7.9 19.2202 7.9 18.875V14.6V14.1H7.4L6.275 14.1H3.125C2.77982 14.1 2.5 13.8202 2.5 13.475V8.525C2.5 8.17982 2.77982 7.9 3.125 7.9H7.4Z" stroke="#8C8C8C"/>
</svg>
