<svg width="38" height="38" viewBox="0 0 38 38" fill="none" xmlns="http://www.w3.org/2000/svg">
<path d="M19.0002 3.16663C18.5802 3.16663 18.1775 3.33344 17.8806 3.63037C17.5836 3.92731 17.4168 4.33003 17.4168 4.74996C17.4168 5.16989 17.5836 5.57261 17.8806 5.86954C18.1775 6.16648 18.5802 6.33329 19.0002 6.33329C19.4201 6.33329 19.8228 6.16648 20.1197 5.86954C20.4167 5.57261 20.5835 5.16989 20.5835 4.74996C20.5835 4.33003 20.4167 3.92731 20.1197 3.63037C19.8228 3.33344 19.4201 3.16663 19.0002 3.16663ZM35.6252 17.4166C35.4152 17.4166 35.2138 17.5 35.0654 17.6485C34.9169 17.797 34.8335 17.9983 34.8335 18.2083C34.8335 18.4183 34.9169 18.6196 35.0654 18.7681C35.2138 18.9166 35.4152 19 35.6252 19C35.8351 19 36.0365 18.9166 36.185 18.7681C36.3334 18.6196 36.4168 18.4183 36.4168 18.2083C36.4168 17.9983 36.3334 17.797 36.185 17.6485C36.0365 17.5 35.8351 17.4166 35.6252 17.4166ZM2.37516 17.4166C2.1652 17.4166 1.96384 17.5 1.81537 17.6485C1.6669 17.797 1.5835 17.9983 1.5835 18.2083C1.5835 18.4183 1.6669 18.6196 1.81537 18.7681C1.96384 18.9166 2.1652 19 2.37516 19C2.58513 19 2.78649 18.9166 2.93496 18.7681C3.08342 18.6196 3.16683 18.4183 3.16683 18.2083C3.16683 17.9983 3.08342 17.797 2.93496 17.6485C2.78649 17.5 2.58513 17.4166 2.37516 17.4166Z" fill="white"/>
<path d="M20.1242 3.63538L19 4.90838L17.8759 3.63538L1.90479 17.5719L2.37504 19H6.33337V31.6667C6.33337 32.5407 7.0427 33.25 7.9167 33.25H14.25C15.124 33.25 15.8334 32.5407 15.8334 31.6667V22.1667H22.1667V31.6667C22.1667 32.5407 22.876 33.25 23.75 33.25H30.0834C30.9574 33.25 31.6667 32.5407 31.6667 31.6667V19H35.625L36.0953 17.5719L20.1242 3.63538Z" fill="white"/>
</svg>
