<svg width="18" height="18" viewBox="0 0 18 18" fill="none" xmlns="http://www.w3.org/2000/svg">
<circle cx="9" cy="9" r="8" stroke="#4A86FA" stroke-width="2"/>
<path d="M9.01054 5.9121C8.7332 5.9121 8.49854 5.8161 8.30654 5.6241C8.11454 5.42143 8.01854 5.18676 8.01854 4.9201C8.01854 4.64276 8.11454 4.4081 8.30654 4.2161C8.49854 4.01343 8.7332 3.9121 9.01054 3.9121C9.28787 3.9121 9.52254 4.01343 9.71454 4.2161C9.9172 4.4081 10.0185 4.64276 10.0185 4.9201C10.0185 5.18676 9.9172 5.42143 9.71454 5.6241C9.51187 5.8161 9.2772 5.9121 9.01054 5.9121ZM9.77854 14.6001H8.19454V6.9201H9.77854V14.6001Z" fill="#4A86FA"/>
</svg>
