<svg width="22" height="22" viewBox="0 0 22 22" fill="none" xmlns="http://www.w3.org/2000/svg">
<g clip-path="url(#clip0)">
<path d="M11.0168 4.7417C7.90298 4.7417 5.35904 7.28564 5.35904 10.3994C5.35904 12.0275 6.07134 13.5946 7.27208 14.6529C8.16755 15.5484 8.08614 17.4614 8.06579 17.4818C8.06579 17.5835 8.08614 17.6649 8.16755 17.7463C8.2286 17.8074 8.33036 17.8481 8.41176 17.8481H13.6014C13.7032 17.8481 13.7846 17.8074 13.8456 17.7463C13.9067 17.6853 13.9474 17.5835 13.9474 17.4818C13.9474 17.4614 13.8456 15.5484 14.7411 14.6529C14.7614 14.6325 14.7818 14.6122 14.8021 14.5918C15.9825 13.5132 16.6745 11.9868 16.6745 10.3994C16.6745 7.28564 14.1305 4.7417 11.0168 4.7417ZM14.273 14.1238C14.2526 14.1441 14.2119 14.1848 14.2119 14.2052C13.4182 15.0599 13.2758 16.4642 13.2554 17.1358H8.75774C8.73739 16.4642 8.59493 14.9989 7.74016 14.1238C6.66154 13.1876 6.03064 11.824 6.03064 10.3791C6.03064 7.63162 8.24895 5.4133 10.9964 5.4133C13.7439 5.4133 15.9622 7.63162 15.9622 10.3791C15.9622 11.824 15.3516 13.1876 14.273 14.1238Z" fill="#8C8C8C"/>
<path d="M10.9964 6.18701C10.8132 6.18701 10.6504 6.34982 10.6504 6.53299C10.6504 6.71615 10.8132 6.87896 10.9964 6.87896C13.0519 6.87896 14.7004 8.54779 14.7004 10.5829C14.7004 10.7661 14.8632 10.9289 15.0464 10.9289C15.2295 10.9289 15.3923 10.7661 15.3923 10.5829C15.4127 8.16111 13.4386 6.18701 10.9964 6.18701Z" fill="#8C8C8C"/>
<path d="M13.2554 18.2349H8.73739C8.26931 18.2349 7.88263 18.6215 7.88263 19.0896C7.88263 19.5577 8.26931 19.9444 8.73739 19.9444H13.2351C13.7235 19.924 14.1102 19.5577 14.1102 19.0896C14.1102 18.6215 13.7235 18.2349 13.2554 18.2349ZM13.2554 19.2321H8.73739C8.65599 19.2321 8.57458 19.171 8.57458 19.0693C8.57458 18.9675 8.63564 18.9065 8.73739 18.9065H13.2351C13.3165 18.9065 13.3979 18.9675 13.3979 19.0693C13.3979 19.171 13.3368 19.2321 13.2554 19.2321Z" fill="#8C8C8C"/>
<path d="M12.5838 20.2905H9.40899C8.94091 20.2905 8.55423 20.6772 8.55423 21.1453C8.55423 21.6134 8.94091 22.0001 9.40899 22.0001H12.5838C13.0519 22.0001 13.4386 21.6134 13.4386 21.1453C13.4386 20.6569 13.0519 20.2905 12.5838 20.2905ZM12.5838 21.2878H9.40899C9.32759 21.2878 9.24618 21.2267 9.24618 21.1249C9.24618 21.0232 9.30724 20.9621 9.40899 20.9621H12.5838C12.6652 20.9621 12.7466 21.0232 12.7466 21.1249C12.7466 21.2267 12.6652 21.2878 12.5838 21.2878Z" fill="#8C8C8C"/>
<path d="M10.9964 3.05273C11.1999 3.05273 11.3424 2.88992 11.3424 2.70676V0.345976C11.3424 0.162812 11.1796 0 10.9964 0C10.8132 0 10.6504 0.162812 10.6504 0.345976V2.70676C10.6504 2.88992 10.8132 3.05273 10.9964 3.05273Z" fill="#8C8C8C"/>
<path d="M16.7559 1.75004C16.5931 1.62793 16.3896 1.68899 16.2878 1.83145L14.9853 3.78519C14.8632 3.94801 14.9039 4.17187 15.0667 4.27363C15.1278 4.31433 15.1888 4.33469 15.2499 4.33469C15.372 4.33469 15.4737 4.27363 15.5348 4.17187L16.8373 2.21813C16.9594 2.07567 16.9187 1.8518 16.7559 1.75004Z" fill="#8C8C8C"/>
<path d="M6.86503 4.25358C6.92609 4.25358 6.98714 4.23323 7.0482 4.19252C7.21101 4.09077 7.25171 3.8669 7.14995 3.70409L5.88816 1.72999C5.7864 1.56718 5.56254 1.52647 5.39973 1.62823C5.23692 1.72999 5.19621 1.95386 5.29797 2.11667L6.55976 4.09077C6.64117 4.21288 6.74292 4.25358 6.86503 4.25358Z" fill="#8C8C8C"/>
<path d="M4.4025 6.41061L2.347 5.29127C2.18419 5.20987 1.96032 5.27092 1.87892 5.43373C1.77716 5.59655 1.83821 5.82041 2.02138 5.90182L4.07688 7.02116C4.13793 7.04151 4.17864 7.06186 4.23969 7.06186C4.3618 7.06186 4.48391 7.00081 4.54497 6.8787C4.62637 6.71589 4.56532 6.49202 4.4025 6.41061Z" fill="#8C8C8C"/>
<path d="M20.1342 5.43373C20.0528 5.27092 19.829 5.20987 19.6661 5.29127L17.5903 6.41061C17.4275 6.49202 17.3664 6.71589 17.4478 6.8787C17.5089 7.00081 17.631 7.06186 17.7531 7.06186C17.8142 7.06186 17.8752 7.04151 17.9159 7.02116L19.9918 5.90182C20.1546 5.82041 20.2156 5.59655 20.1342 5.43373Z" fill="#8C8C8C"/>
</g>
<defs>
<clipPath id="clip0">
<rect width="22" height="22" fill="white"/>
</clipPath>
</defs>
</svg>
