<svg width="13" height="13" viewBox="0 0 13 13" fill="none" xmlns="http://www.w3.org/2000/svg">
<path d="M2.75 9.31396C2.63397 9.31396 2.52269 9.36006 2.44064 9.44211C2.35859 9.52416 2.3125 9.63543 2.3125 9.75146C2.3125 9.86746 2.35859 9.97876 2.44064 10.0609C2.52269 10.1429 2.63397 10.189 2.75 10.189C2.86603 10.189 2.97731 10.1429 3.05936 10.0609C3.14141 9.97876 3.1875 9.86746 3.1875 9.75146C3.1875 9.63543 3.14141 9.52416 3.05936 9.44211C2.97731 9.36006 2.86603 9.31396 2.75 9.31396Z" fill="#4A86FA"/>
<path d="M1 4.50146H4.5V11.5015H1V4.50146Z" stroke="#4A86FA"/>
<path d="M4.5 11.5015H9.9154C10.3406 11.5015 10.7081 11.2127 10.7974 10.8102L11.4983 5.56026C11.619 5.01513 11.1911 4.50151 10.6162 4.50151H7.125C7.125 4.50151 7.125 2.79176 7.125 2.53276C7.125 0.892134 5.375 1.00151 5.375 1.00151C5.375 1.22026 5.375 1.40138 5.375 1.76713C5.375 3.62651 4.5 4.82963 4.5 4.82963" stroke="#4A86FA" stroke-linecap="round" stroke-linejoin="round"/>
</svg>
