<svg width="31" height="31" viewBox="0 0 31 31" fill="none" xmlns="http://www.w3.org/2000/svg">
<path d="M15.5002 2.58337C8.37791 2.58337 2.5835 7.79912 2.5835 14.2084C2.5835 21.0012 9.0935 26.4895 16.7918 25.7727V28.4167C16.8177 28.4077 16.7918 29.7084 18.0835 28.9992L18.781 28.5523C20.2432 27.6146 27.5734 22.5745 28.3432 15.4419C28.391 15.0363 28.4168 14.6243 28.4168 14.2084C28.4168 7.79912 22.6224 2.58337 15.5002 2.58337ZM10.9793 15.5H9.68766C9.33116 15.5 9.04183 15.2107 9.04183 14.8542V13.5625C9.04183 13.206 9.33116 12.9167 9.68766 12.9167H10.9793C11.3358 12.9167 11.6252 13.206 11.6252 13.5625V14.8542C11.6252 15.2107 11.3358 15.5 10.9793 15.5ZM16.146 15.5H14.8543C14.4978 15.5 14.2085 15.2107 14.2085 14.8542V13.5625C14.2085 13.206 14.4978 12.9167 14.8543 12.9167H16.146C16.5025 12.9167 16.7918 13.206 16.7918 13.5625V14.8542C16.7918 15.2107 16.5025 15.5 16.146 15.5ZM21.3127 15.5H20.021C19.6645 15.5 19.3752 15.2107 19.3752 14.8542V13.5625C19.3752 13.206 19.6645 12.9167 20.021 12.9167H21.3127C21.6692 12.9167 21.9585 13.206 21.9585 13.5625V14.8542C21.9585 15.2107 21.6692 15.5 21.3127 15.5Z" fill="white"/>
</svg>
