<svg width="16" height="16" viewBox="0 0 16 16" fill="none" xmlns="http://www.w3.org/2000/svg">
<path d="M12.939 5.44002L12.18 5.82002L9.5 8.50002V10.5C9.5 11.03 9.289 11.539 8.914 11.914L8.5 12.328L3.672 7.50002L4.086 7.08602C4.461 6.71102 4.97 6.50002 5.5 6.50002H7.5L10.18 3.82002L10.56 3.06102C10.865 2.45102 11.679 2.31802 12.162 2.80102L13.2 3.83902C13.682 4.32202 13.55 5.13502 12.939 5.44002ZM6.125 9.87502L2.375 13.625L6.125 9.87502Z" fill="#162B55"/>
<path d="M6.125 9.87502L2.375 13.625M12.939 5.44002L12.18 5.82002L9.5 8.50002V10.5C9.5 11.03 9.289 11.539 8.914 11.914L8.5 12.328L3.672 7.50002L4.086 7.08602C4.461 6.71102 4.97 6.50002 5.5 6.50002H7.5L10.18 3.82002L10.56 3.06102C10.865 2.45102 11.679 2.31802 12.162 2.80102L13.2 3.83902C13.682 4.32202 13.55 5.13502 12.939 5.44002Z" stroke="#162B55"/>
</svg>
