<svg width="17" height="17" viewBox="0 0 17 17" fill="none" xmlns="http://www.w3.org/2000/svg">
<path d="M3.1967 13.8033C2.53295 13.1396 2.97319 11.746 2.63534 10.9295C2.28512 10.0831 1 9.4018 1 8.49997C1 7.59816 2.28513 6.91692 2.63535 6.07049C2.97319 5.25396 2.53295 3.86045 3.1967 3.1967C3.86045 2.53295 5.25397 2.97319 6.0705 2.63534C6.91695 2.28512 7.5982 1 8.50003 1C9.40184 1 10.0831 2.28513 10.9295 2.63535C11.746 2.97319 13.1396 2.53295 13.8033 3.1967C14.4671 3.86045 14.0268 5.25397 14.3647 6.0705C14.7149 6.91695 16 7.5982 16 8.50003C16 9.40184 14.7149 10.0831 14.3647 10.9295C14.0268 11.746 14.4671 13.1396 13.8033 13.8033C13.1396 14.4671 11.746 14.0268 10.9295 14.3647C10.0831 14.7149 9.4018 16 8.49997 16C7.59816 16 6.91692 14.7149 6.07049 14.3647C5.25396 14.0268 3.86045 14.4671 3.1967 13.8033Z" stroke="#162B55" stroke-linecap="round" stroke-linejoin="round"/>
<path d="M8.49996 12.8272C8.81858 12.8272 9.07688 12.5689 9.07688 12.2503C9.07688 11.9316 8.81858 11.6733 8.49996 11.6733C8.18133 11.6733 7.92303 11.9316 7.92303 12.2503C7.92303 12.5689 8.18133 12.8272 8.49996 12.8272Z" fill="#162B55"/>
<path d="M8.5 9.65396V9.07704C8.89937 9.07704 9.28977 8.95861 9.62183 8.73673C9.95389 8.51486 10.2127 8.1995 10.3655 7.83053C10.5184 7.46157 10.5583 7.05557 10.4804 6.66387C10.4025 6.27218 10.2102 5.91239 9.92782 5.62999C9.64542 5.3476 9.28563 5.15529 8.89394 5.07737C8.50225 4.99946 8.09624 5.03945 7.72728 5.19228C7.35831 5.34511 7.04295 5.60392 6.82108 5.93598C6.5992 6.26804 6.48077 6.65844 6.48077 7.05781" stroke="#162B55" stroke-linecap="round" stroke-linejoin="round"/>
</svg>
