<svg width="20" height="20" viewBox="0 0 20 20" fill="none" xmlns="http://www.w3.org/2000/svg">
<path d="M14.8354 2.72705C14.6464 2.72705 14.4719 2.79251 14.3339 2.93069L12.9965 4.27614L15.7221 7.00341L17.0594 5.65796C17.3429 5.37432 17.3429 4.90887 17.0594 4.63978L15.3587 2.93069C15.2133 2.79251 15.0171 2.72705 14.8354 2.72705V2.72705ZM3.65689 4.1816L2.72656 5.11251L7.45088 9.81796L4.1802 13.0907V15.818H6.90577L10.1765 12.5452L14.879 17.2725L15.8093 16.3416L11.085 11.6361L8.35941 8.90887L3.65689 4.1816ZM12.2188 5.04705L9.28973 7.97796L12.0153 10.7052L14.9444 7.77432L12.2188 5.04705V5.04705Z" fill="black"/>
<circle cx="10" cy="10" r="9.5" stroke="black"/>
</svg>
