<svg width="26" height="26" viewBox="0 0 26 26" fill="none" xmlns="http://www.w3.org/2000/svg">
<g clip-path="url(#clip0)">
<path d="M16.0333 15.1666H15.5567C15.3774 15.167 15.217 15.0551 15.1554 14.8867C15.1025 14.748 15.0458 14.6124 14.9847 14.4781C14.9087 14.3147 14.9434 14.1213 15.0713 13.9945L15.4111 13.6543C15.9154 13.1455 15.9145 12.325 15.4089 11.8174L14.1843 10.5928C13.6761 10.0875 12.8552 10.0875 12.347 10.5928L12.0072 10.9321C11.8802 11.0595 11.6871 11.0942 11.5236 11.0188C11.3893 10.9577 11.2537 10.9009 11.1146 10.8454C10.9453 10.7843 10.8327 10.6233 10.8333 10.4433V9.96663C10.8333 9.24865 10.2513 8.66663 9.53333 8.66663H7.8C7.08202 8.66663 6.5 9.24865 6.5 9.96663V10.4433C6.50033 10.6226 6.38847 10.783 6.22007 10.8446C6.0814 10.8974 5.94577 10.9542 5.81143 11.0153C5.64801 11.0909 5.45485 11.0562 5.32783 10.9286L4.98767 10.5889C4.47948 10.084 3.65896 10.084 3.15077 10.5889L1.92617 11.8174C1.4209 12.3256 1.4209 13.1465 1.92617 13.6547L2.26547 13.9945C2.39341 14.1213 2.42808 14.3147 2.35213 14.4781C2.29103 14.6124 2.23427 14.748 2.18097 14.8871C2.11895 15.0565 1.95704 15.1685 1.77667 15.1666H1.3C0.582021 15.1666 0 15.7486 0 16.4666V18.2C0 18.9179 0.582021 19.5 1.3 19.5H1.77667C1.95596 19.4996 2.11635 19.6115 2.17793 19.7799C2.2308 19.9186 2.28757 20.0542 2.34867 20.1885C2.42461 20.3519 2.38994 20.5453 2.262 20.6721L1.92227 21.0123C1.41733 21.5205 1.41733 22.341 1.92227 22.8492L3.14687 24.0738C3.65511 24.5791 4.47595 24.5791 4.9842 24.0738L5.32393 23.7345C5.45101 23.607 5.64411 23.5724 5.80753 23.6478C5.94187 23.7089 6.0775 23.7657 6.2166 23.8212C6.38674 23.8816 6.50033 24.0428 6.5 24.2233V24.7C6.5 25.4179 7.08202 26 7.8 26H9.53333C10.2513 26 10.8333 25.4179 10.8333 24.7V24.2233C10.833 24.044 10.9449 23.8836 11.1133 23.822C11.2519 23.7692 11.3876 23.7124 11.5219 23.6513C11.6853 23.5757 11.8785 23.6103 12.0055 23.738L12.3457 24.0777C12.8546 24.5818 13.6749 24.5808 14.1826 24.0755L15.4072 22.8509C15.9124 22.3427 15.9124 21.5218 15.4072 21.0136L15.0679 20.6739C14.9399 20.5471 14.9053 20.3536 14.9812 20.1903C15.0423 20.0559 15.0991 19.9203 15.1545 19.7812C15.2157 19.6119 15.3767 19.4993 15.5567 19.5H16.0333C16.7513 19.5 17.3333 18.9179 17.3333 18.2V16.4666C17.3333 15.7486 16.7513 15.1666 16.0333 15.1666ZM16.4667 18.2C16.4667 18.4393 16.2726 18.6333 16.0333 18.6333H15.5567C15.018 18.6353 14.5359 18.9683 14.3433 19.4714C14.2974 19.5927 14.2477 19.7121 14.1943 19.8297C13.9715 20.3216 14.0748 20.8998 14.4543 21.284L14.7931 21.6233C14.9625 21.7924 14.9626 22.0668 14.7935 22.2361C14.7933 22.2362 14.7932 22.2363 14.7931 22.2365L13.5685 23.4611C13.3993 23.6302 13.125 23.6302 12.9558 23.4611L12.6161 23.1218C12.2321 22.742 11.6536 22.6386 11.1618 22.8618C11.0444 22.9151 10.9248 22.9649 10.8043 23.0108C10.3016 23.2033 9.96883 23.685 9.96667 24.2233V24.7C9.96667 24.9393 9.77264 25.1333 9.53333 25.1333H7.8C7.56069 25.1333 7.36667 24.9393 7.36667 24.7V24.2233C7.36466 23.6846 7.0317 23.2025 6.5286 23.01C6.40727 22.964 6.28783 22.9144 6.17023 22.8609C5.6784 22.6382 5.10017 22.7416 4.71597 23.1209L4.37667 23.4598C4.20756 23.6291 3.93315 23.6292 3.76382 23.4601C3.76372 23.46 3.76361 23.4599 3.7635 23.4598L2.5389 22.2365C2.36974 22.0672 2.36974 21.7929 2.5389 21.6237L2.8782 21.284C3.25764 20.8998 3.36099 20.3216 3.1382 19.8297C3.0849 19.7123 3.03507 19.5927 2.98913 19.4722C2.79706 18.969 2.3153 18.6357 1.77667 18.6333H1.3C1.06069 18.6333 0.866667 18.4393 0.866667 18.2V16.4666C0.866667 16.2273 1.06069 16.0333 1.3 16.0333H1.77667C2.31535 16.0313 2.79744 15.6983 2.99 15.1952C3.03593 15.0739 3.0856 14.9545 3.13907 14.8369C3.36185 14.345 3.25845 13.7667 2.87907 13.3826L2.53847 13.0433C2.36914 12.8742 2.36898 12.5998 2.53814 12.4305C2.53825 12.4303 2.53836 12.4302 2.53847 12.4301L3.76307 11.2055C3.93228 11.0364 4.20658 11.0364 4.3758 11.2055L4.71553 11.5448C5.09952 11.9246 5.67802 12.028 6.1698 11.8048C6.28723 11.7515 6.40683 11.7017 6.5273 11.6558C7.03073 11.4638 7.36423 10.982 7.36667 10.4433V9.96663C7.36667 9.72732 7.56069 9.53329 7.8 9.53329H9.53333C9.77264 9.53329 9.96667 9.72732 9.96667 9.96663V10.4433C9.96867 10.982 10.3016 11.4641 10.8047 11.6566C10.9261 11.7026 11.0455 11.7522 11.1631 11.8057C11.6549 12.0289 12.2334 11.9255 12.6174 11.5457L12.9567 11.2068C13.1265 11.0388 13.4 11.0388 13.5698 11.2068L14.7944 12.4314C14.9636 12.6006 14.9636 12.8749 14.7944 13.0442L14.4551 13.3839C14.0758 13.768 13.9723 14.3463 14.1951 14.8382C14.2484 14.9556 14.2983 15.0752 14.3442 15.1957C14.5367 15.6984 15.0184 16.0311 15.5567 16.0333H16.0333C16.2726 16.0333 16.4667 16.2273 16.4667 16.4666V18.2Z" fill="#4A86FA"/>
<path d="M12.558 17.16C12.5537 17.056 12.5463 16.9525 12.5337 16.8493C12.5199 16.7384 12.5034 16.6283 12.4804 16.5204C12.4653 16.4498 12.4453 16.38 12.4263 16.3098C12.402 16.2206 12.3747 16.1326 12.3444 16.0459C12.3231 15.9857 12.301 15.9259 12.2785 15.8665C12.2227 15.7277 12.1589 15.5923 12.0874 15.4609C12.0818 15.451 12.0783 15.4401 12.0727 15.4302C11.9599 15.2295 11.8294 15.0393 11.6827 14.8621C11.6701 14.8465 11.6558 14.8317 11.6428 14.8166C11.583 14.7459 11.5215 14.6775 11.4569 14.612C11.4231 14.5769 11.3876 14.544 11.352 14.5102C11.3087 14.4699 11.2654 14.43 11.222 14.3919C11.1694 14.3462 11.1159 14.302 11.0613 14.2593L10.9902 14.2064C10.3197 13.7042 9.50439 13.4329 8.66665 13.4334C8.62332 13.4334 8.57999 13.4398 8.53665 13.4416C8.44435 13.4442 8.35162 13.4494 8.25845 13.4589C8.20949 13.4641 8.16008 13.4698 8.11112 13.4767C7.96985 13.4953 7.82967 13.5215 7.69122 13.5551C5.60466 14.0943 4.35027 16.2229 4.88945 18.3095C5.24478 19.6845 6.31901 20.7578 7.69425 21.112C7.70118 21.112 7.70855 21.1142 7.71592 21.1159C7.86558 21.1533 8.01719 21.1822 8.17005 21.2026C8.27102 21.2152 8.37199 21.2178 8.47339 21.2225C8.54099 21.226 8.60338 21.236 8.67402 21.236C8.79752 21.236 8.92578 21.2277 9.05665 21.2147C9.07052 21.2147 9.08438 21.2108 9.09998 21.2091C9.20528 21.1974 9.31188 21.1818 9.42065 21.1601C9.46398 21.1519 9.50428 21.1411 9.54588 21.1315C9.62215 21.1138 9.69798 21.0951 9.77598 21.0722C9.83665 21.054 9.89558 21.0327 9.95495 21.0119C10.0143 20.9911 10.0759 20.9686 10.1374 20.9452C10.1989 20.9218 10.2505 20.8949 10.3064 20.8689C10.3792 20.8356 10.4516 20.8026 10.5231 20.7636H10.5257C10.9301 20.5471 11.3036 20.2774 11.6363 19.9615C11.7261 19.8777 11.8043 19.782 11.8686 19.6773C12.2068 19.1351 12.429 18.5287 12.5212 17.8963C12.5333 17.8126 12.5441 17.729 12.5506 17.6436C12.5567 17.5652 12.561 17.4872 12.5628 17.4092C12.5628 17.3845 12.5662 17.3611 12.5662 17.3364C12.5667 17.2753 12.5606 17.219 12.558 17.16ZM11.6944 17.4439C11.6944 17.4798 11.6913 17.5158 11.6892 17.5513C11.6814 17.6562 11.6679 17.7611 11.6502 17.8664C11.4882 18.7673 10.9288 19.5473 10.1274 19.9897C10.0737 20.0179 10.0208 20.0443 9.96795 20.0686L9.93198 20.0859C9.68022 20.2002 9.41448 20.2806 9.14158 20.3251C9.12252 20.3281 9.10302 20.3316 9.08352 20.3342C9.02935 20.342 8.97605 20.3485 8.92318 20.3533C8.85342 20.3593 8.78322 20.3628 8.71172 20.3641C8.68138 20.3641 8.65148 20.3641 8.62115 20.3641C8.51861 20.3629 8.41624 20.3566 8.31435 20.345L8.26235 20.339C8.14318 20.3234 8.02499 20.3011 7.90832 20.2722C6.28538 19.8568 5.30648 18.2044 5.72183 16.5815C5.99629 15.5091 6.83316 14.6713 7.90528 14.3958V14.3954C8.15423 14.3326 8.4099 14.3005 8.66665 14.3C8.79053 14.3007 8.9143 14.3091 9.03715 14.3252C9.07008 14.3291 9.10258 14.3351 9.13508 14.3399C9.22868 14.3546 9.32142 14.3733 9.41285 14.3967C9.44275 14.4045 9.47265 14.4114 9.50212 14.4196C9.73254 14.4861 9.95436 14.5795 10.163 14.6978C10.1963 14.7173 10.2288 14.7377 10.2618 14.7581C10.3302 14.8014 10.3965 14.8447 10.462 14.8941C10.4971 14.9197 10.5326 14.9448 10.5664 14.9721C10.6514 15.04 10.7328 15.1124 10.8104 15.1888C10.8411 15.22 10.8693 15.2542 10.8992 15.2867C10.949 15.3409 10.9976 15.3964 11.0439 15.4549C11.076 15.4952 11.1068 15.5368 11.1371 15.5788C11.1804 15.6412 11.2238 15.7062 11.2628 15.7721C11.2844 15.808 11.3061 15.8431 11.3282 15.88C11.3841 15.9828 11.4339 16.0889 11.4773 16.1976C11.4946 16.2409 11.5093 16.2843 11.5249 16.3276C11.5531 16.4073 11.5774 16.4879 11.5986 16.5694C11.6094 16.6127 11.6216 16.6513 11.6307 16.6933C11.6559 16.8104 11.6743 16.9289 11.6857 17.0482C11.6883 17.0799 11.6883 17.1119 11.6905 17.1436C11.6965 17.2432 11.6983 17.3433 11.6944 17.4439Z" fill="#4A86FA"/>
<path d="M24.7 9.1H23.3372C23.1555 9.10184 22.9929 8.98739 22.9333 8.81573C22.7989 8.41322 22.6363 8.02062 22.4467 7.64097C22.3662 7.477 22.3997 7.27989 22.5299 7.15173L23.4962 6.1841C24.0035 5.6765 24.0035 4.85393 23.4962 4.34633L21.6537 2.50683C21.1461 1.99962 20.3235 1.99962 19.8159 2.50683L18.85 3.4723C18.722 3.60241 18.5252 3.6361 18.3612 3.55593C17.9815 3.36532 17.5888 3.20185 17.186 3.0667C17.0137 3.00771 16.8984 2.845 16.9 2.66283V1.3C16.9 0.582021 16.318 0 15.6 0H13C12.2821 0 11.7 0.582021 11.7 1.3V2.66283C11.7019 2.84456 11.5875 3.00712 11.4158 3.0667C11.0132 3.20179 10.6206 3.36516 10.241 3.5555C10.077 3.63626 9.87982 3.60273 9.75177 3.4723L8.78413 2.50597C8.27594 2.00021 7.45456 2.00021 6.94637 2.50597L5.1073 4.34503C4.59981 4.85268 4.59981 5.67558 5.1073 6.18323L6.5282 7.60673C6.70007 7.77324 6.97443 7.76891 7.14093 7.59698C7.30338 7.42928 7.30376 7.163 7.1418 6.99487L5.72003 5.5718C5.55087 5.40258 5.55087 5.12828 5.72003 4.95907L7.5591 3.12C7.72832 2.95084 8.00262 2.95084 8.17183 3.12L9.1399 4.08633C9.53158 4.48034 10.1317 4.57882 10.6288 4.33073C10.9721 4.15886 11.327 4.01131 11.6909 3.88917C12.2162 3.71134 12.569 3.21745 12.5667 2.66283V1.3C12.5667 1.06069 12.7607 0.866667 13 0.866667H15.6C15.8393 0.866667 16.0334 1.06069 16.0334 1.3V2.66283C16.0311 3.21734 16.3839 3.71107 16.9091 3.88873C17.2732 4.01093 17.6283 4.15859 17.9717 4.33073C18.4689 4.57752 19.0682 4.47893 19.4602 4.0859L20.4282 3.12C20.5974 2.95084 20.8717 2.95084 21.041 3.12L22.88 4.9595C23.0489 5.12866 23.0489 5.40264 22.88 5.5718L21.9137 6.53987C21.5201 6.93176 21.4216 7.53166 21.6693 8.0288C21.8412 8.37205 21.9887 8.72695 22.1109 9.0909C22.2886 9.61632 22.7825 9.96905 23.3372 9.96667H24.7C24.9393 9.96667 25.1334 10.1607 25.1334 10.4V13C25.1334 13.2393 24.9393 13.4333 24.7 13.4333H23.3372C22.7827 13.4311 22.289 13.7838 22.1113 14.3091C21.9892 14.6732 21.8414 15.0283 21.6693 15.3716C21.4221 15.8688 21.5207 16.4683 21.9141 16.8601L22.8805 17.8282C23.0496 17.9974 23.0496 18.2717 22.8805 18.4409L21.0405 20.28C20.8714 20.4489 20.5974 20.4489 20.4282 20.28L19.0043 18.8591C18.8378 18.6872 18.5634 18.6828 18.3916 18.8493C18.2196 19.0159 18.2153 19.2902 18.3818 19.4621C18.3853 19.4657 18.3889 19.4692 18.3924 19.4727L19.8159 20.8936C20.3235 21.4008 21.1461 21.4008 21.6537 20.8936L23.4928 19.055C24.0003 18.5473 24.0003 17.7244 23.4928 17.2168L22.5277 16.25C22.3977 16.122 22.3641 15.9252 22.4441 15.7612C22.6347 15.3815 22.7982 14.9888 22.9333 14.586C22.9923 14.4136 23.155 14.2984 23.3372 14.3H24.7C25.418 14.3 26 13.718 26 13V10.4C26 9.68202 25.418 9.1 24.7 9.1Z" fill="#4A86FA"/>
<path d="M18.2832 7.7168C16.082 5.52018 12.518 5.52018 10.3168 7.7168C10.1506 7.88894 10.1553 8.1633 10.3275 8.32953C10.4954 8.49171 10.7616 8.49171 10.9295 8.32953C12.7785 6.45558 15.7965 6.43538 17.6705 8.28436C19.5444 10.1333 19.5646 13.1513 17.7157 15.0253C17.7007 15.0405 17.6857 15.0555 17.6705 15.0705C17.4983 15.2368 17.4936 15.5111 17.6599 15.6832C17.8262 15.8553 18.1005 15.8601 18.2726 15.6938C18.2762 15.6904 18.2798 15.6868 18.2832 15.6832C20.4798 13.482 20.4798 9.91803 18.2832 7.7168Z" fill="#4A86FA"/>
</g>
<defs>
<clipPath id="clip0">
<rect width="26" height="26" fill="#fff"/>
</clipPath>
</defs>
</svg>
