<svg width="20" height="20" viewBox="0 0 20 20" fill="none" xmlns="http://www.w3.org/2000/svg">
<path d="M9.99992 3.33325C6.31825 3.33325 3.33325 6.31825 3.33325 9.99992C3.33325 13.6816 6.31825 16.6666 9.99992 16.6666C13.6816 16.6666 16.6666 13.6816 16.6666 9.99992C16.6666 6.31825 13.6816 3.33325 9.99992 3.33325ZM9.99992 13.3333C8.15908 13.3333 6.66658 11.8408 6.66658 9.99992C6.66658 8.15908 8.15908 6.66658 9.99992 6.66658C11.8408 6.66658 13.3333 8.15908 13.3333 9.99992C13.3333 11.8408 11.8408 13.3333 9.99992 13.3333Z" fill="#162B55"/>
<path d="M12.4309 4.16675L12.0759 2.34091C11.9992 1.94925 11.6567 1.66675 11.2575 1.66675H8.74254C8.34337 1.66675 8.00087 1.94925 7.9242 2.34091L7.5692 4.16675H12.4309ZM7.5692 15.8334L7.9242 17.6592C8.00087 18.0509 8.34337 18.3334 8.74254 18.3334H11.2575C11.6567 18.3334 11.9992 18.0509 12.0759 17.6592L12.4309 15.8334H7.5692ZM6.16337 4.97841L4.40504 4.37341C4.02754 4.24341 3.6117 4.39925 3.4117 4.74425L2.1542 6.92258C1.95504 7.26841 2.02837 7.70675 2.3292 7.96842L3.73254 9.18842L6.16337 4.97841ZM13.8367 15.0217L15.595 15.6267C15.9725 15.7567 16.3884 15.6009 16.5884 15.2551L17.8459 13.0767C18.045 12.7309 17.9717 12.2926 17.6709 12.0309L16.2675 10.8109L13.8367 15.0217ZM3.73254 10.8117L2.3292 12.0317C2.02837 12.2934 1.95504 12.7317 2.1542 13.0776L3.4117 15.2559C3.61087 15.6017 4.02754 15.7567 4.40504 15.6276L6.16337 15.0226L3.73254 10.8117ZM16.2675 9.18842L17.6709 7.96842C17.9717 7.70675 18.045 7.26841 17.8459 6.92258L16.5884 4.74425C16.3892 4.39841 15.9725 4.24342 15.595 4.37258L13.8367 4.97758L16.2675 9.18842Z" fill="#162B55"/>
</svg>
