<svg width="16" height="16" viewBox="0 0 16 16" fill="none" xmlns="http://www.w3.org/2000/svg">
<path d="M3.5 13C3.5 10.515 5.515 8.5 8 8.5C10.485 8.5 12.5 10.515 12.5 13M8 2.5C7.33696 2.5 6.70107 2.76339 6.23223 3.23223C5.76339 3.70107 5.5 4.33696 5.5 5C5.5 5.66304 5.76339 6.29893 6.23223 6.76777C6.70107 7.23661 7.33696 7.5 8 7.5C8.66304 7.5 9.29893 7.23661 9.76777 6.76777C10.2366 6.29893 10.5 5.66304 10.5 5C10.5 4.33696 10.2366 3.70107 9.76777 3.23223C9.29893 2.76339 8.66304 2.5 8 2.5Z" stroke="#162B55"/>
</svg>
