<svg width="14" height="14" viewBox="0 0 14 14" fill="none" xmlns="http://www.w3.org/2000/svg">
<path d="M3.0625 9.625C2.94647 9.625 2.83519 9.67109 2.75314 9.75314C2.67109 9.83519 2.625 9.94647 2.625 10.0625C2.625 10.1785 2.67109 10.2898 2.75314 10.3719C2.83519 10.4539 2.94647 10.5 3.0625 10.5C3.17853 10.5 3.28981 10.4539 3.37186 10.3719C3.45391 10.2898 3.5 10.1785 3.5 10.0625C3.5 9.94647 3.45391 9.83519 3.37186 9.75314C3.28981 9.67109 3.17853 9.625 3.0625 9.625Z" fill="#8C8C8C"/>
<path d="M1.3125 4.8125H4.8125V11.8125H1.3125V4.8125Z" stroke="#8C8C8C"/>
<path d="M4.8125 11.8125H10.2279C10.6531 11.8125 11.0206 11.5237 11.1099 11.1212L11.8108 5.87124C11.9315 5.32611 11.5036 4.81249 10.9287 4.81249H7.4375C7.4375 4.81249 7.4375 3.10274 7.4375 2.84374C7.4375 1.20311 5.6875 1.31249 5.6875 1.31249C5.6875 1.53124 5.6875 1.71236 5.6875 2.07811C5.6875 3.93749 4.8125 5.14061 4.8125 5.14061" stroke="#8C8C8C" stroke-linecap="round" stroke-linejoin="round"/>
</svg>
